<?xml version="1.0" encoding="UTF-8"?>
<svg width="24px" height="24px" viewBox="0 0 24 24" version="1.1" xmlns="http://www.w3.org/2000/svg" xmlns:xlink="http://www.w3.org/1999/xlink">
    <!-- Generator: Sketch 55.2 (78181) - https://sketchapp.com -->
    <title>Atoms / Icons / white / 24px / logo / claveunica</title>
    <desc>Created with Sketch.</desc>
    <g id="Atoms-/-Icons-/-white-/-24px-/-logo-/-claveunica" stroke="none" stroke-width="1" fill="none" fill-rule="evenodd">
        <path d="M11.4675,13.98 C11.3184168,13.8411851 11.2408804,13.6418927 11.2569506,13.4388234 C11.2730209,13.2357542 11.3809385,13.051138 11.55,12.9375 C11.6920419,12.8039318 11.8839635,12.736694 12.0783067,12.7524129 C12.2726498,12.7681319 12.4512707,12.8653401 12.57,13.02 C12.8292491,13.3325349 12.7926802,13.7946322 12.4875,14.0625 C12.3454581,14.1960682 12.1535365,14.263306 11.9591933,14.2475871 C11.7648502,14.2318682 11.5862293,14.13466 11.4675,13.98 L11.4675,13.98 Z M15.27,5.31749995 C18.6796882,6.64675131 20.9449716,9.90828502 21,13.5675 C21,18.5380628 16.9705628,22.5675 12,22.5675 C7.02943721,22.5675 2.99999993,18.5380628 2.99999993,13.5675 C2.94947349,9.95832374 5.11234931,6.68574688 8.45249999,5.31749995 C8.81999999,5.22749995 9.08999999,5.22749995 9.26999999,5.68499995 C9.44095071,6.05791973 9.28056036,6.49899331 8.90999999,6.67499996 C5.49519747,8.19209226 3.71803205,11.9914362 4.74232294,15.5849405 C5.76661383,19.1784449 9.27987194,21.4698087 12.9813562,20.9584779 C16.6828405,20.4471469 19.4433078,17.2891172 19.455,13.5525 C19.4675051,10.4778502 17.5911099,7.71091191 14.73,6.58499996 C14.5503885,6.52907161 14.4051674,6.39580506 14.334053,6.2216471 C14.2629384,6.04748914 14.273372,5.85066363 14.3625,5.68499995 C14.420264,5.50494963 14.5549765,5.35983308 14.7302402,5.28885849 C14.9055041,5.21788389 15.1032316,5.22837598 15.27,5.31749995 Z M7.49999997,13.3275 C7.48423513,11.0965623 9.06004154,9.17092686 11.25,8.74499999 L11.25,2.33249993 C11.2783776,1.91536359 11.5880757,1.57159868 12,1.49999993 L15.3075,1.49999993 C15.7040429,1.52383479 16.0132157,1.85274199 16.0125,2.24999993 C15.9960133,2.640241 15.6959765,2.95942918 15.3075,2.99999993 L12.75,2.99999993 L12.75,8.75999999 C14.9704659,9.13412384 16.5725796,11.0919068 16.5,13.3425 C16.5253492,15.8640842 14.5209645,17.9386223 12,17.9999999 C9.47312534,17.9385744 7.46637386,15.8548975 7.49999997,13.3275 Z M15,13.4175 C15.0130507,11.7354396 13.6812791,10.3503972 12,10.2975 C10.4186112,10.4716571 9.22153829,11.8078002 9.22153829,13.39875 C9.22153829,14.9896998 10.4186112,16.3258429 12,16.5 C13.6667054,16.4475269 14.9927506,15.0850154 15,13.4175 Z" id="cl-icons-43" fill="#FFFFFF"></path>
    </g>
</svg>